<?xml version="1.0" encoding="UTF-8"?>
<!DOCTYPE svg PUBLIC "-//W3C//DTD SVG 1.1//EN" "http://www.w3.org/Graphics/SVG/1.1/DTD/svg11.dtd">
<!-- Creator: CorelDRAW -->
<svg xmlns="http://www.w3.org/2000/svg" xml:space="preserve" width="6.82666in" height="6.82666in" style="shape-rendering:geometricPrecision; text-rendering:geometricPrecision; image-rendering:optimizeQuality; fill-rule:evenodd; clip-rule:evenodd"
viewBox="0 0 6.82666 6.82666"
 xmlns:xlink="http://www.w3.org/1999/xlink">
 <defs>
  <style type="text/css">
   <![CDATA[
    .fil1 {fill:#FEFEFE;fill-rule:nonzero}
    .fil0 {fill:url(#id0)}
   ]]>
  </style>
  <linearGradient id="id0" gradientUnits="userSpaceOnUse" x1="1.68784" y1="0.424697" x2="5.13882" y2="6.40196">
   <stop offset="0" style="stop-color:#444FF5"/>
   <stop offset="0.490196" style="stop-color:#21BFDB"/>
   <stop offset="1" style="stop-color:#1DABB6"/>
  </linearGradient>
 </defs>
 <g id="Layer_x0020_1">
  <metadata id="CorelCorpID_0Corel-Layer"/>
  <path class="fil0" d="M6.36936 1.70667c0.942567,1.63257 0.383209,3.72013 -1.24937,4.6627 -1.63257,0.942567 -3.72013,0.383209 -4.6627,-1.24937 -0.942567,-1.63257 -0.383209,-3.72013 1.24937,-4.6627 1.63257,-0.942567 3.72013,-0.383209 4.6627,1.24937z"/>
  <g id="_217593952">
   <path id="_217594192" class="fil1" d="M3.41333 3.06081c0.370831,0 0.706567,0.150315 0.949591,0.393339 0.24302,0.24302 0.393339,0.578756 0.393339,0.949583 0,0.370831 -0.150319,0.706571 -0.393339,0.949591 -0.243024,0.24302 -0.57876,0.393339 -0.949591,0.393339 -0.370831,0 -0.706567,-0.150319 -0.949591,-0.393339 -0.24302,-0.24302 -0.393339,-0.57876 -0.393339,-0.949591 0,-0.370827 0.150319,-0.706563 0.393339,-0.949583 0.243024,-0.243024 0.57876,-0.393339 0.949591,-0.393339zm0.84648 0.496449c-0.216626,-0.216626 -0.515906,-0.350618 -0.84648,-0.350618 -0.330575,0 -0.629854,0.133992 -0.84648,0.350618 -0.216626,0.216622 -0.350614,0.515902 -0.350614,0.846472 0,0.330575 0.133988,0.629854 0.350614,0.84648 0.216626,0.216626 0.515906,0.350618 0.84648,0.350618 0.330575,0 0.629854,-0.133992 0.84648,-0.350618 0.216626,-0.216626 0.350614,-0.515906 0.350614,-0.84648 0,-0.330571 -0.133988,-0.62985 -0.350614,-0.846472z"/>
   <path id="_217594288" class="fil1" d="M3.68504 1.08002l0.798846 0c0.0402677,0 0.0729173,0.0326457 0.0729173,0.0729134 0,0.00925984 -0.00173228,0.0181102 -0.00487795,0.0262559l-0.597 2.06531 0.000251969 7.08661e-005c-0.0111811,0.038689 -0.0516142,0.0609843 -0.0902992,0.0498031 -0.00405906,-0.00117323 -0.00793307,-0.00267323 -0.0116102,-0.00445669 -0.0679646,-0.0268661 -0.139173,-0.0477244 -0.212965,-0.0618898 -0.0730433,-0.0140236 -0.148913,-0.021378 -0.226972,-0.021378 -0.0507441,0 -0.10063,0.0031378 -0.149465,0.00922047 -0.049685,0.00618504 -0.0984882,0.0154449 -0.146181,0.0275551l3.93701e-006 3.54331e-005c-0.0390315,0.00990945 -0.0787126,-0.0136929 -0.088622,-0.0527244 -0.0038622,-0.0152047 -0.0026378,-0.0305079 0.0026063,-0.0441142l0.582134 -2.01386 -0.000251969 -7.08661e-005c0.00937008,-0.0324134 0.0392756,-0.0533189 0.0714843,-0.0526654zm0.702138 0.145831l-0.64902 0 -0.535181 1.85142c0.0143346,-0.00226378 0.0287441,-0.00429134 0.0432283,-0.00609449 0.054878,-0.00683071 0.110661,-0.0103583 0.167126,-0.0103583 0.0865,0 0.171535,0.00833071 0.254319,0.0242244 0.0577559,0.0110866 0.114283,0.0259213 0.169323,0.0442323l0.550205 -1.90342z"/>
   <path id="_217594024" class="fil1" d="M3.0885 1.22585l-0.64902 0 0.550193 1.90338 0.00764173 -0.00251969c0.0148268,-0.00482677 0.0295079,-0.00935433 0.0440276,-0.0135591l0.296354 -1.02522 -0.249197 -0.862087zm-0.745728 -0.145831l0.798846 0c0.0322087,-0.000653543 0.0621142,0.020252 0.0714843,0.0526654l-0.000251969 7.08661e-005 0.268559 0.929075c0.00550394,0.0143189 0.00655118,0.0304843 0.0019685,0.0463543l-0.000267717 -2.3622e-005 -0.311823 1.07872c-0.0052874,0.0267402 -0.0254173,0.0494134 -0.0535906,0.0565709l-1.5748e-005 -3.14961e-005c-0.0264331,0.00671654 -0.0515591,0.0139685 -0.0753583,0.0217205 -0.0237323,0.00772835 -0.0467205,0.016 -0.0689409,0.0247756 -0.00367717,0.00177953 -0.00754724,0.00327953 -0.0116024,0.00445276 -0.038685,0.0111811 -0.0791181,-0.0111142 -0.0902992,-0.0498031l0.000251969 -7.08661e-005 -0.597 -2.06531c-0.00314567,-0.00814567 -0.00487795,-0.0169961 -0.00487795,-0.0262559 0,-0.0402677 0.0326496,-0.0729134 0.0729173,-0.0729134z"/>
   <path id="_217594000" class="fil1" d="M3.4827 3.72526l0.145815 0.45172 0.475346 -0.000917323c0.0401102,0 0.0726339,0.0325236 0.0726339,0.0726339 0,0.024189 -0.0118307,0.0456102 -0.0300157,0.058815l0.000106299 0.000145669 -0.385 0.278591 0.147732 0.451709c0.0124291,0.0382244 -0.00848425,0.0792913 -0.0467087,0.0917165 -0.0249252,0.00810236 -0.0510591,0.00202362 -0.0696732,-0.0137835l-0.379602 -0.276913 -0.384051 0.280157c-0.0324016,0.0235945 -0.0778031,0.0164528 -0.101398,-0.0159488 -0.0142244,-0.0195394 -0.0172717,-0.0438071 -0.0103465,-0.0651654l-0.000188976 -6.29921e-005 0.147732 -0.451709 -0.385 -0.278591c-0.0325591,-0.0235945 -0.0398307,-0.069122 -0.0162362,-0.101685 0.0153465,-0.0211811 0.0399724,-0.0316575 0.0642795,-0.0298976l0.470028 0.000905512 0.145969 -0.452197c0.0122677,-0.0382244 0.0532047,-0.0592677 0.0914291,-0.047 0.0233661,0.0075 0.040311,0.0257205 0.0471496,0.0474764zm0.0236969 0.546669l-0.093063 -0.288299 -0.093063 0.288299 -4.33071e-005 -1.5748e-005c-0.00938189,0.0292559 -0.0368031,0.0504331 -0.0691693,0.0504331l-0.303071 -0.000582677 0.245508 0.17765 -1.1811e-005 1.5748e-005c0.0248858,0.0180197 0.0365118,0.0506575 0.0265,0.0814488l-0.0942677 0.288232 0.243709 -0.17778c0.0248583,-0.0188898 0.0600984,-0.020185 0.0866339,-0.000866142l0.244894 0.178646 -0.0933937 -0.285567c-0.0110118,-0.0298465 -0.00141339,-0.0645433 0.0256142,-0.0841299l0.245508 -0.17765 -0.299728 0.000574803c-0.0319961,0.00149213 -0.0622953,-0.0184488 -0.0725551,-0.0504094z"/>
  </g>
 </g>
</svg>
