<?xml version="1.0" encoding="UTF-8" standalone="no"?> <svg width="64" height="64" viewBox="0 0 64 64" fill="none" xmlns="http://www.w3.org/2000/svg">
<path d="M40 7H24C19.5817 7 16 10.5817 16 15V53C16 57.4183 19.5817 61 24 61H40C44.4183 61 48 57.4183 48 53V15C48 10.5817 44.4183 7 40 7Z" fill="#20B2AD"/>
<path d="M40 16L37 13L34 16V4.013C34.0003 3.74442 34.1071 3.48691 34.297 3.29699C34.4869 3.10708 34.7444 3.00026 35.013 3H38.987C39.2556 3.00026 39.5131 3.10708 39.703 3.29699C39.8929 3.48691 39.9997 3.74442 40 4.013V16Z" fill="#FFD700"/>
<path d="M16 51H48V54C48 55.8565 47.2625 57.637 45.9497 58.9497C44.637 60.2625 42.8565 61 41 61H24C21.8783 61 19.8434 60.1571 18.3431 58.6569C16.8429 57.1566 16 55.1217 16 53V51Z" fill="#FF7F00"/>
<path d="M31 41H40L43 43L46 41H55C55.5304 41 56.0391 40.7893 56.4142 40.4142C56.7893 40.0391 57 39.5304 57 39V23C57 22.4696 56.7893 21.9609 56.4142 21.5858C56.0391 21.2107 55.5304 21 55 21H46L43 23L40 21H31C30.4696 21 29.9609 21.2107 29.5858 21.5858C29.2107 21.9609 29 22.4696 29 23V39C29 39.5304 29.2107 40.0391 29.5858 40.4142C29.9609 40.7893 30.4696 41 31 41Z" fill="#FFD700"/>
<path d="M11 28H21C22.0609 28 23.0783 28.4214 23.8284 29.1716C24.5786 29.9217 25 30.9391 25 32V44H7V32C7 30.9391 7.42143 29.9217 8.17157 29.1716C8.92172 28.4214 9.93913 28 11 28V28Z" fill="#800080"/>
<path d="M16 33L13 28H19L16 33Z" fill="#FFD700"/>
<path d="M8 14H19C19.6566 14 20.3068 14.1293 20.9134 14.3806C21.52 14.6319 22.0712 15.0002 22.5355 15.4645C22.9998 15.9288 23.3681 16.48 23.6194 17.0866C23.8707 17.6932 24 18.3434 24 19V19C24 19.6566 23.8707 20.3068 23.6194 20.9134C23.3681 21.52 22.9998 22.0712 22.5355 22.5355C22.0712 22.9998 21.52 23.3681 20.9134 23.6194C20.3068 23.8707 19.6566 24 19 24H15C13.1435 24 11.363 23.2625 10.0503 21.9497C8.7375 20.637 8 18.8565 8 17V14Z" fill="#FF7F00"/>
<path d="M12 20H20V24C20 25.0609 19.5786 26.0783 18.8284 26.8284C18.0783 27.5786 17.0609 28 16 28C14.9391 28 13.9217 27.5786 13.1716 26.8284C12.4214 26.0783 12 25.0609 12 24V20Z" fill="#FFD700"/>
<path d="M48 44C47.7348 44 47.4804 44.1054 47.2929 44.2929C47.1054 44.4804 47 44.7348 47 45V50H17V48C17 47.7348 16.8946 47.4804 16.7071 47.2929C16.5196 47.1054 16.2652 47 16 47C15.7348 47 15.4804 47.1054 15.2929 47.2929C15.1054 47.4804 15 47.7348 15 48V53C15.0029 55.3861 15.9521 57.6735 17.6393 59.3607C19.3265 61.0479 21.6139 61.9971 24 62H41C43.121 61.9976 45.1544 61.154 46.6542 59.6542C48.154 58.1544 48.9976 56.121 49 54V45C49 44.7348 48.8946 44.4804 48.7071 44.2929C48.5196 44.1054 48.2652 44 48 44ZM24 60C22.1441 59.9979 20.3649 59.2597 19.0526 57.9474C17.7403 56.6351 17.0021 54.8559 17 53V52H47V53C46.9979 54.8559 46.2597 56.6351 44.9474 57.9474C43.6351 59.2597 41.8559 59.9979 40 60H24Z" fill="#000066"/>
<path d="M33.617 16.924C33.7998 16.9997 34.0009 17.0195 34.1949 16.9809C34.3889 16.9422 34.5672 16.8469 34.707 16.707L37 14.414L39.293 16.707C39.4329 16.8468 39.611 16.942 39.805 16.9806C39.9989 17.0192 40.2 16.9993 40.3827 16.9237C40.5654 16.848 40.7215 16.7199 40.8314 16.5555C40.9413 16.391 41 16.1978 41 16V4.013C40.9995 3.47928 40.7872 2.96757 40.4098 2.59018C40.0324 2.21278 39.5207 2.00053 38.987 2H35.013C34.4793 2.00053 33.9676 2.21278 33.5902 2.59018C33.2128 2.96757 33.0005 3.47928 33 4.013V16C33 16.1978 33.0585 16.3911 33.1684 16.5556C33.2782 16.72 33.4343 16.8483 33.617 16.924V16.924ZM35.013 4L39 4.013V13.586L37.707 12.293C37.5195 12.1055 37.2652 12.0002 37 12.0002C36.7348 12.0002 36.4805 12.1055 36.293 12.293L35 13.583L35.013 4Z" fill="#000066"/>
<path d="M36.444 55H27.556C27.2908 55 27.0364 55.1054 26.8489 55.2929C26.6614 55.4804 26.556 55.7348 26.556 56C26.556 56.2652 26.6614 56.5196 26.8489 56.7071C27.0364 56.8946 27.2908 57 27.556 57H36.444C36.7092 57 36.9636 56.8946 37.1511 56.7071C37.3386 56.5196 37.444 56.2652 37.444 56C37.444 55.7348 37.3386 55.4804 37.1511 55.2929C36.9636 55.1054 36.7092 55 36.444 55Z" fill="#000066"/>
<path d="M24 12C24.5523 12 25 11.5523 25 11C25 10.4477 24.5523 10 24 10C23.4477 10 23 10.4477 23 11C23 11.5523 23.4477 12 24 12Z" fill="#000066"/>
<path d="M28 12C28.5523 12 29 11.5523 29 11C29 10.4477 28.5523 10 28 10C27.4477 10 27 10.4477 27 11C27 11.5523 27.4477 12 28 12Z" fill="#000066"/>
<path d="M28 23V39C28 39.7956 28.3161 40.5587 28.8787 41.1213C29.4413 41.6839 30.2044 42 31 42H39C39.2652 42 39.5196 41.8946 39.7071 41.7071C39.8946 41.5196 40 41.2652 40 41C40 40.7348 39.8946 40.4804 39.7071 40.2929C39.5196 40.1054 39.2652 40 39 40H31C30.7348 40 30.4804 39.8946 30.2929 39.7071C30.1054 39.5196 30 39.2652 30 39V23C30 22.7348 30.1054 22.4804 30.2929 22.2929C30.4804 22.1054 30.7348 22 31 22H39C39.2652 22 39.5196 21.8946 39.7071 21.7071C39.8946 21.5196 40 21.2652 40 21C40 20.7348 39.8946 20.4804 39.7071 20.2929C39.5196 20.1054 39.2652 20 39 20H31C30.2044 20 29.4413 20.3161 28.8787 20.8787C28.3161 21.4413 28 22.2044 28 23V23Z" fill="#000066"/>
<path d="M55 20H47C46.7348 20 46.4804 20.1054 46.2929 20.2929C46.1054 20.4804 46 20.7348 46 21C46 21.2652 46.1054 21.5196 46.2929 21.7071C46.4804 21.8946 46.7348 22 47 22H55C55.2652 22 55.5196 22.1054 55.7071 22.2929C55.8946 22.4804 56 22.7348 56 23V39C56 39.2652 55.8946 39.5196 55.7071 39.7071C55.5196 39.8946 55.2652 40 55 40H47C46.7348 40 46.4804 40.1054 46.2929 40.2929C46.1054 40.4804 46 40.7348 46 41C46 41.2652 46.1054 41.5196 46.2929 41.7071C46.4804 41.8946 46.7348 42 47 42H55C55.7956 42 56.5587 41.6839 57.1213 41.1213C57.6839 40.5587 58 39.7956 58 39V23C58 22.2044 57.6839 21.4413 57.1213 20.8787C56.5587 20.3161 55.7956 20 55 20Z" fill="#000066"/>
<path d="M43 44C43.2652 44 43.5196 43.8946 43.7071 43.7071C43.8946 43.5196 44 43.2652 44 43V23C44 22.7348 43.8946 22.4804 43.7071 22.2929C43.5196 22.1054 43.2652 22 43 22C42.7348 22 42.4804 22.1054 42.2929 22.2929C42.1054 22.4804 42 22.7348 42 23V43C42 43.2652 42.1054 43.5196 42.2929 43.7071C42.4804 43.8946 42.7348 44 43 44Z" fill="#000066"/>
<path d="M49 26H53C53.2652 26 53.5196 25.8946 53.7071 25.7071C53.8946 25.5196 54 25.2652 54 25C54 24.7348 53.8946 24.4804 53.7071 24.2929C53.5196 24.1054 53.2652 24 53 24H49C48.7348 24 48.4804 24.1054 48.2929 24.2929C48.1054 24.4804 48 24.7348 48 25C48 25.2652 48.1054 25.5196 48.2929 25.7071C48.4804 25.8946 48.7348 26 49 26Z" fill="#000066"/>
<path d="M49 30H53C53.2652 30 53.5196 29.8946 53.7071 29.7071C53.8946 29.5196 54 29.2652 54 29C54 28.7348 53.8946 28.4804 53.7071 28.2929C53.5196 28.1054 53.2652 28 53 28H49C48.7348 28 48.4804 28.1054 48.2929 28.2929C48.1054 28.4804 48 28.7348 48 29C48 29.2652 48.1054 29.5196 48.2929 29.7071C48.4804 29.8946 48.7348 30 49 30Z" fill="#000066"/>
<path d="M49 34H53C53.2652 34 53.5196 33.8946 53.7071 33.7071C53.8946 33.5196 54 33.2652 54 33C54 32.7348 53.8946 32.4804 53.7071 32.2929C53.5196 32.1054 53.2652 32 53 32H49C48.7348 32 48.4804 32.1054 48.2929 32.2929C48.1054 32.4804 48 32.7348 48 33C48 33.2652 48.1054 33.5196 48.2929 33.7071C48.4804 33.8946 48.7348 34 49 34Z" fill="#000066"/>
<path d="M49 38H53C53.2652 38 53.5196 37.8946 53.7071 37.7071C53.8946 37.5196 54 37.2652 54 37C54 36.7348 53.8946 36.4804 53.7071 36.2929C53.5196 36.1054 53.2652 36 53 36H49C48.7348 36 48.4804 36.1054 48.2929 36.2929C48.1054 36.4804 48 36.7348 48 37C48 37.2652 48.1054 37.5196 48.2929 37.7071C48.4804 37.8946 48.7348 38 49 38Z" fill="#000066"/>
<path d="M37 24H33C32.7348 24 32.4804 24.1054 32.2929 24.2929C32.1054 24.4804 32 24.7348 32 25C32 25.2652 32.1054 25.5196 32.2929 25.7071C32.4804 25.8946 32.7348 26 33 26H37C37.2652 26 37.5196 25.8946 37.7071 25.7071C37.8946 25.5196 38 25.2652 38 25C38 24.7348 37.8946 24.4804 37.7071 24.2929C37.5196 24.1054 37.2652 24 37 24Z" fill="#000066"/>
<path d="M37 28H33C32.7348 28 32.4804 28.1054 32.2929 28.2929C32.1054 28.4804 32 28.7348 32 29C32 29.2652 32.1054 29.5196 32.2929 29.7071C32.4804 29.8946 32.7348 30 33 30H37C37.2652 30 37.5196 29.8946 37.7071 29.7071C37.8946 29.5196 38 29.2652 38 29C38 28.7348 37.8946 28.4804 37.7071 28.2929C37.5196 28.1054 37.2652 28 37 28Z" fill="#000066"/>
<path d="M37 32H33C32.7348 32 32.4804 32.1054 32.2929 32.2929C32.1054 32.4804 32 32.7348 32 33C32 33.2652 32.1054 33.5196 32.2929 33.7071C32.4804 33.8946 32.7348 34 33 34H37C37.2652 34 37.5196 33.8946 37.7071 33.7071C37.8946 33.5196 38 33.2652 38 33C38 32.7348 37.8946 32.4804 37.7071 32.2929C37.5196 32.1054 37.2652 32 37 32V32Z" fill="#000066"/>
<path d="M37 36H33C32.7348 36 32.4804 36.1054 32.2929 36.2929C32.1054 36.4804 32 36.7348 32 37C32 37.2652 32.1054 37.5196 32.2929 37.7071C32.4804 37.8946 32.7348 38 33 38H37C37.2652 38 37.5196 37.8946 37.7071 37.7071C37.8946 37.5196 38 37.2652 38 37C38 36.7348 37.8946 36.4804 37.7071 36.2929C37.5196 36.1054 37.2652 36 37 36Z" fill="#000066"/>
<path d="M12.434 29L15 33.277V44C15 44.2652 15.1054 44.5196 15.2929 44.7071C15.4804 44.8947 15.7348 45 16 45C16.2652 45 16.5196 44.8947 16.7071 44.7071C16.8946 44.5196 17 44.2652 17 44V33.277L19.566 29H21C21.7956 29 22.5587 29.3161 23.1213 29.8787C23.6839 30.4413 24 31.2044 24 32V44C24 44.2652 24.1054 44.5196 24.2929 44.7071C24.4804 44.8947 24.7348 45 25 45C25.2652 45 25.5196 44.8947 25.7071 44.7071C25.8946 44.5196 26 44.2652 26 44V32C25.9984 30.6744 25.4711 29.4036 24.5338 28.4662C23.5964 27.5289 22.3256 27.0016 21 27H19.974C20.4909 26.317 20.8214 25.5113 20.933 24.662C22.2789 24.2066 23.4191 23.2874 24.1498 22.0688C24.8805 20.8502 25.1541 19.4115 24.9217 18.0097C24.6894 16.6079 23.9662 15.3344 22.8814 14.4167C21.7966 13.499 20.4209 12.9968 19 13H8C7.73478 13 7.48043 13.1054 7.29289 13.2929C7.10536 13.4804 7 13.7348 7 14V17C7.00764 18.399 7.38077 19.7716 8.0824 20.982C8.78403 22.1923 9.7898 23.1982 11 23.9V24C11.0037 25.0855 11.3642 26.1396 12.026 27H11C9.6744 27.0016 8.40356 27.5289 7.46622 28.4662C6.52888 29.4036 6.00159 30.6744 6 32V44C6 44.2652 6.10536 44.5196 6.29289 44.7071C6.48043 44.8947 6.73478 45 7 45C7.26522 45 7.51957 44.8947 7.70711 44.7071C7.89464 44.5196 8 44.2652 8 44V32C8 31.2044 8.31607 30.4413 8.87868 29.8787C9.44129 29.3161 10.2044 29 11 29H12.434ZM16 31.056L14.766 29H17.234L16 31.056ZM13 24V21H19V24C19 24.7957 18.6839 25.5587 18.1213 26.1213C17.5587 26.6839 16.7956 27 16 27C15.2044 27 14.4413 26.6839 13.8787 26.1213C13.3161 25.5587 13 24.7957 13 24ZM9 17V15H19C19.88 14.999 20.7358 15.2886 21.4344 15.8238C22.1329 16.3591 22.6352 17.11 22.8632 17.96C23.0912 18.81 23.0322 19.7115 22.6953 20.5245C22.3584 21.3375 21.7624 22.0165 21 22.456V20C21 19.7348 20.8946 19.4804 20.7071 19.2929C20.5196 19.1054 20.2652 19 20 19H12C11.7348 19 11.4804 19.1054 11.2929 19.2929C11.1054 19.4804 11 19.7348 11 20V21.458C10.3735 20.896 9.87187 20.2089 9.52738 19.441C9.18289 18.6732 9.00323 17.8416 9 17V17Z" fill="#000066"/>
<path d="M11 34C10.7348 34 10.4804 34.1054 10.2929 34.2929C10.1054 34.4804 10 34.7348 10 35V44C10 44.2652 10.1054 44.5196 10.2929 44.7071C10.4804 44.8946 10.7348 45 11 45C11.2652 45 11.5196 44.8946 11.7071 44.7071C11.8946 44.5196 12 44.2652 12 44V35C12 34.7348 11.8946 34.4804 11.7071 34.2929C11.5196 34.1054 11.2652 34 11 34Z" fill="#000066"/>
<path d="M20 35V44C20 44.2652 20.1054 44.5196 20.2929 44.7071C20.4804 44.8946 20.7348 45 21 45C21.2652 45 21.5196 44.8946 21.7071 44.7071C21.8946 44.5196 22 44.2652 22 44V35C22 34.7348 21.8946 34.4804 21.7071 34.2929C21.5196 34.1054 21.2652 34 21 34C20.7348 34 20.4804 34.1054 20.2929 34.2929C20.1054 34.4804 20 34.7348 20 35Z" fill="#000066"/>
</svg>
