<?xml version="1.0" encoding="UTF-8" standalone="no"?> <svg width="512" height="512" viewBox="0 0 512 512" fill="none" xmlns="http://www.w3.org/2000/svg">
<path d="M16.0674 312.162L168 184L128 128L17.1874 196.193L16.0674 312.162Z" fill="#576CD3"/>
<path d="M16.1328 488.701L232 272L176 216L18.1918 365.502L16.1328 488.701Z" fill="#576CD3"/>
<path d="M244.997 29.4005C240.877 30.2246 236.959 31.8523 233.467 34.1907C229.975 36.529 226.978 39.5322 224.647 43.0287L168 128L134.061 136.485L168 184L200 160L272 24L244.997 29.4005Z" fill="#EFC8B4"/>
<path d="M376 136L326.078 50.4194C322.161 43.7038 315.932 38.6441 308.556 36.1854L272 24V139.209L331.692 169.846L360 184L373.091 203.636L415.31 167.448L376 136Z" fill="#EFC8B4"/>
<path d="M328 192L334.185 154.891C335.361 147.835 334.139 140.587 330.713 134.307L284.757 50.0312L240 160L288 240L296.296 264.889L341.617 226.043L328 192Z" fill="#EABFAC"/>
<path d="M328 376H184C175.163 376 168 383.163 168 392V472C168 480.837 175.163 488 184 488H328C336.837 488 344 480.837 344 472V392C344 383.163 336.837 376 328 376Z" fill="#31C292"/>
<path d="M280 384C278.949 384 277.909 383.793 276.939 383.391C275.968 382.989 275.086 382.4 274.343 381.657C273.6 380.914 273.011 380.032 272.609 379.061C272.207 378.091 272 377.051 272 376V352C271.998 349.879 271.154 347.846 269.654 346.346C268.154 344.846 266.121 344.002 264 344H248C245.879 344.002 243.846 344.846 242.346 346.346C240.846 347.846 240.002 349.879 240 352V376C240 378.122 239.157 380.157 237.657 381.657C236.157 383.157 234.122 384 232 384C229.878 384 227.843 383.157 226.343 381.657C224.843 380.157 224 378.122 224 376V352C224.007 345.637 226.538 339.537 231.037 335.037C235.537 330.538 241.637 328.007 248 328H264C270.363 328.007 276.463 330.538 280.963 335.037C285.462 339.537 287.993 345.637 288 352V376C288 377.051 287.793 378.091 287.391 379.061C286.989 380.032 286.4 380.914 285.657 381.657C284.914 382.4 284.032 382.989 283.061 383.391C282.091 383.793 281.051 384 280 384V384Z" fill="#31C292"/>
<path d="M344 416H168V392C168 387.757 169.686 383.687 172.686 380.686C175.687 377.686 179.757 376 184 376H328C332.243 376 336.313 377.686 339.314 380.686C342.314 383.687 344 387.757 344 392V416Z" fill="#00A16C"/>
<path d="M288 128L248 152L289.698 47.7551C290.508 45.7308 290.895 43.5623 290.837 41.3828C290.778 39.2034 290.274 37.0588 289.357 35.081C288.44 33.1031 287.128 31.3335 285.502 29.881C283.876 28.4284 281.97 27.3235 279.902 26.634L272 24L206.274 126.24C202.221 132.546 200.509 140.075 201.439 147.513L208 200L184 224L224 264L291.449 162.827C294.988 157.518 296.579 151.147 295.95 144.797C295.321 138.447 292.512 132.512 288 128V128Z" fill="#FCDCC8"/>
<path d="M344 224L288 272L471.965 488.701L493.207 398.074L344 224Z" fill="#576CD3"/>
<path d="M424 160L368 208L495.992 344L493.657 229.657L424 160Z" fill="#576CD3"/>
<path d="M367.994 56.0021C366.042 56.0004 364.158 55.2851 362.697 53.9909C361.235 52.6968 360.297 50.9131 360.06 48.9756C359.822 47.0381 360.301 45.0805 361.406 43.4714C362.511 41.8623 364.166 40.7126 366.06 40.2389L430.06 24.2389C432.118 23.7243 434.296 24.0484 436.116 25.14C437.017 25.6805 437.802 26.3932 438.428 27.2373C439.053 28.0814 439.506 29.0405 439.761 30.0597C440.016 31.0789 440.068 32.1384 439.913 33.1775C439.758 34.2167 439.401 35.2152 438.86 36.1161C438.32 37.017 437.607 37.8026 436.763 38.428C435.919 39.0535 434.96 39.5066 433.94 39.7614L369.94 55.7614C369.304 55.9208 368.65 56.0017 367.994 56.0021V56.0021Z" fill="#F4CF9B"/>
<path d="M464.006 120.002C463.35 120.002 462.696 119.921 462.06 119.761L398.06 103.761C396.001 103.247 394.232 101.935 393.14 100.116C392.048 98.2967 391.724 96.1181 392.239 94.0597C392.754 92.0013 394.065 90.2316 395.884 89.14C397.704 88.0484 399.882 87.7243 401.941 88.2389L465.941 104.239C467.834 104.713 469.489 105.862 470.595 107.471C471.7 109.08 472.178 111.038 471.94 112.976C471.703 114.913 470.765 116.697 469.303 117.991C467.842 119.285 465.958 120 464.006 120.002V120.002Z" fill="#F4CF9B"/>
<path d="M175.994 56.0018C174.753 56.0014 173.531 55.7114 172.422 55.1551L124.422 31.1551C123.482 30.6858 122.643 30.0358 121.954 29.2421C121.265 28.4485 120.739 27.5268 120.406 26.5298C120.073 25.5328 119.94 24.4799 120.014 23.4314C120.088 22.383 120.369 21.3594 120.839 20.4193C121.309 19.4791 121.96 18.6408 122.754 17.9523C123.548 17.2638 124.47 16.7385 125.467 16.4066C126.465 16.0746 127.518 15.9424 128.566 16.0175C129.614 16.0927 130.638 16.3737 131.578 16.8446L179.578 40.8446C181.19 41.6511 182.482 42.9784 183.246 44.6114C184.01 46.2444 184.199 48.0874 183.784 49.8417C183.37 51.596 182.375 53.1588 180.961 54.2769C179.546 55.395 177.796 56.0028 175.994 56.0018H175.994Z" fill="#F4CF9B"/>
<path d="M55.9907 112.002C53.9941 111.999 52.0706 111.25 50.5979 109.902C49.1253 108.553 48.2101 106.703 48.0319 104.715C47.8538 102.726 48.4256 100.743 49.6352 99.1539C50.8447 97.5654 52.6045 96.4864 54.5688 96.129L142.569 80.129C143.602 79.9411 144.663 79.9586 145.69 80.1805C146.717 80.4024 147.69 80.8245 148.554 81.4225C149.418 82.0205 150.155 82.7828 150.724 83.6658C151.293 84.5488 151.683 85.5353 151.871 86.569C152.059 87.6026 152.042 88.6632 151.82 89.6901C151.598 90.717 151.176 91.6901 150.578 92.5539C149.98 93.4177 149.217 94.1552 148.334 94.7244C147.451 95.2936 146.465 95.6833 145.431 95.8712L57.4311 111.871C56.9559 111.958 56.4738 112.001 55.9907 112.002V112.002Z" fill="#F4CF9B"/>
<path d="M232.001 272L176.001 216L130.812 258.811L188.831 316.83L232.001 272Z" fill="#3F589E"/>
<path d="M84.3359 154.87L129.553 218.175L168 184L128 128L84.3359 154.87Z" fill="#3F589E"/>
<path d="M344 224L288 272L323.588 315.677L381.333 267.556L344 224Z" fill="#3F589E"/>
<path d="M368 208L405.5 250.5L408 248L464 200L424 160L368 208Z" fill="#3F589E"/>
<path d="M328 368H288V352C287.993 345.637 285.462 339.537 280.963 335.037C276.463 330.538 270.363 328.007 264 328H248C241.637 328.007 235.537 330.538 231.037 335.037C226.538 339.537 224.007 345.637 224 352V368H184C177.637 368.007 171.537 370.538 167.037 375.037C162.538 379.537 160.007 385.637 160 392V472C160.007 478.363 162.538 484.463 167.037 488.963C171.537 493.462 177.637 495.993 184 496H328C334.363 495.993 340.463 493.462 344.963 488.963C349.462 484.463 351.993 478.363 352 472V392C351.993 385.637 349.462 379.537 344.963 375.037C340.463 370.538 334.363 368.007 328 368ZM240 352C240.002 349.879 240.846 347.846 242.346 346.346C243.846 344.846 245.879 344.002 248 344H264C266.121 344.002 268.154 344.846 269.654 346.346C271.154 347.846 271.998 349.879 272 352V368H240V352ZM184 384H328C330.121 384.002 332.154 384.846 333.654 386.346C335.154 387.846 335.998 389.879 336 392V408H176V392C176.002 389.879 176.846 387.846 178.346 386.346C179.846 384.846 181.879 384.002 184 384ZM328 480H184C181.879 479.998 179.846 479.154 178.346 477.654C176.846 476.154 176.002 474.121 176 472V424H336V472C335.998 474.121 335.154 476.154 333.654 477.654C332.154 479.154 330.121 479.998 328 480V480Z" fill="#293A60"/>
<path d="M350.074 218.793C349.093 217.648 347.805 216.805 346.362 216.364L336.26 191.107L337.803 181.845L354.522 190.205L362.513 202.191C361.002 203.613 360.104 205.566 360.008 207.638C359.913 209.711 360.628 211.739 362.002 213.293L482.002 349.293C482.697 350.08 483.54 350.724 484.484 351.185C485.428 351.647 486.453 351.919 487.501 351.984C488.55 352.05 489.601 351.908 490.595 351.567C491.589 351.227 492.506 350.693 493.293 349.998C494.081 349.303 494.724 348.46 495.186 347.516C495.648 346.573 495.919 345.547 495.985 344.499C496.05 343.45 495.908 342.399 495.568 341.405C495.227 340.411 494.694 339.495 493.999 338.707L416.689 251.089L463.582 210.895L482.344 229.657C483.844 231.155 485.878 231.997 487.999 231.996C490.12 231.995 492.154 231.153 493.653 229.653C495.153 228.153 495.996 226.12 495.997 223.999C495.997 221.878 495.156 219.844 493.657 218.343L429.657 154.343C428.232 152.918 426.321 152.083 424.307 152.005C422.293 151.928 420.324 152.614 418.794 153.926L415.134 157.062L382.16 130.683L332.989 46.3885C328.093 37.9927 320.307 31.6675 311.086 28.596L274.53 16.4104C274.517 16.4062 274.505 16.404 274.492 16.3998L274.491 16.4022C273.182 15.9693 271.783 15.8841 270.431 16.1551L243.429 21.5554C238.273 22.5722 233.37 24.6014 229.004 27.5255C224.638 30.4497 220.895 34.2108 217.991 38.5911L163.059 120.989L137.405 127.402L134.51 123.35C133.332 121.7 131.572 120.56 129.585 120.158C127.599 119.756 125.534 120.124 123.807 121.186L19.8074 185.186C18.0004 186.298 16.7091 188.083 16.2176 190.147C15.7261 192.211 16.0748 194.386 17.1868 196.193C18.2988 198 20.0831 199.291 22.1472 199.782C24.2113 200.274 26.3861 199.925 28.1931 198.813L82.1679 165.598L118.864 216.973L18.6853 306.02C17.0995 307.43 16.1385 309.412 16.0139 311.53C15.8893 313.648 16.6112 315.729 18.0208 317.315C19.4304 318.901 21.4122 319.862 23.5304 319.986C25.6485 320.111 27.7294 319.389 29.3152 317.979L173.07 190.197L196.515 172.614L199.577 197.11L184 212.686L181.657 210.343C180.183 208.869 178.192 208.029 176.108 208.001C174.024 207.973 172.011 208.759 170.498 210.192L18.4983 354.192C17.7357 354.915 17.1228 355.78 16.6947 356.74C16.2665 357.699 16.0316 358.733 16.0032 359.784C15.9748 360.834 16.1536 361.879 16.5292 362.86C16.9049 363.842 17.4701 364.739 18.1927 365.502C18.9152 366.264 19.7809 366.877 20.7403 367.305C21.6997 367.734 22.734 367.969 23.7842 367.997C24.8344 368.025 25.8799 367.847 26.861 367.471C27.8421 367.095 28.7396 366.53 29.5023 365.807L130.66 269.973L177.622 316.935L18.2376 482.45C16.7671 483.979 15.9638 486.029 16.0043 488.15C16.0448 490.27 16.9259 492.288 18.4538 493.76C19.9816 495.231 22.0312 496.035 24.1519 495.996C26.2727 495.956 28.2909 495.076 29.763 493.549L237.763 277.549C239.217 276.04 240.02 274.02 240 271.924C239.98 269.829 239.139 267.825 237.657 266.343L234.294 262.98L264.908 217.061L280.689 243.363L287.006 262.315L282.794 265.926C281.209 267.284 280.218 269.208 280.032 271.287C279.846 273.366 280.48 275.435 281.799 277.053L457.799 493.053C459.14 494.695 461.078 495.738 463.187 495.953C465.297 496.167 467.405 495.535 469.049 494.195C470.692 492.856 471.737 490.919 471.953 488.81C472.17 486.7 471.54 484.592 470.202 482.947L334.789 316.757L380.394 278.752L481.926 397.206C483.307 398.817 485.271 399.814 487.387 399.977C489.502 400.139 491.596 399.455 493.207 398.074C494.818 396.693 495.814 394.729 495.977 392.613C496.14 390.498 495.455 388.404 494.075 386.793L350.074 218.793ZM452.234 199.548L406.102 239.09L379.368 208.792L423.582 170.895L452.234 199.548ZM319.168 54.45L369.09 140.031C369.586 140.881 370.234 141.632 371.003 142.247L402.77 167.66L374.739 191.686L366.657 179.562C365.884 178.404 364.823 177.467 363.578 176.845L340.555 165.333L342.077 156.206C343.532 147.385 342.005 138.331 337.736 130.476L295.903 53.7826L297.126 50.7263C298.305 47.7502 298.876 44.5681 298.806 41.3676L306.027 43.7747C311.559 45.6176 316.231 49.4126 319.168 54.45V54.45ZM130.891 206.283L95.8264 157.193L125.832 138.728L157.311 182.798L130.891 206.283ZM169.751 172.687L147.4 141.396L169.941 135.761C171.871 135.278 173.553 134.093 174.657 132.437L231.304 47.4666C233.046 44.8383 235.292 42.5815 237.912 40.827C240.531 39.0724 243.473 37.8549 246.567 37.2449L255.068 35.5447L199.545 121.914C194.484 129.798 192.345 139.207 193.501 148.505L194.229 154.328L169.751 172.687ZM188.722 305.408L142.28 258.966L175.849 227.163L218.294 269.607L218.335 269.648L220.792 272.105L188.722 305.408ZM195.314 224L213.657 205.657C214.519 204.795 215.172 203.748 215.567 202.596C215.963 201.444 216.089 200.216 215.938 199.008L209.377 146.521C208.684 140.942 209.967 135.297 213.004 130.566L275.368 33.555L277.376 34.2244C278.41 34.5696 279.362 35.1223 280.175 35.8487C280.987 36.5751 281.643 37.4598 282.101 38.4486C282.559 39.4373 282.811 40.5093 282.84 41.5988C282.869 42.6882 282.675 43.7721 282.27 44.784L240.573 149.029C239.95 150.583 239.832 152.294 240.234 153.92C240.636 155.546 241.538 157.005 242.813 158.09C244.088 159.176 245.672 159.835 247.341 159.973C249.01 160.111 250.68 159.721 252.116 158.86L285.921 138.576C287.507 141.682 288.238 145.154 288.039 148.636C287.841 152.117 286.72 155.484 284.793 158.389L222.757 251.443L195.314 224ZM295.59 237.47C295.405 236.916 295.16 236.384 294.86 235.884L274.728 202.33L298.106 167.264C302.653 160.411 304.694 152.197 303.883 144.011C303.073 135.826 299.46 128.172 293.657 122.343C292.396 121.081 290.749 120.278 288.978 120.06C287.207 119.842 285.414 120.222 283.884 121.14L264.248 132.922L288.193 73.0592L323.69 138.138C326.251 142.851 327.167 148.283 326.294 153.576L323.804 168.514L323.791 168.596L320.109 190.684C319.868 192.129 320.029 193.611 320.572 194.971L332.062 223.695L300.123 251.072L295.59 237.47ZM324.681 304.352L299.131 272.995L343.133 235.28L369.98 266.602L324.681 304.352Z" fill="#293A60"/>
<path d="M367.994 56.0021C368.65 56.0017 369.304 55.9208 369.94 55.7614L433.94 39.7614C434.96 39.5066 435.919 39.0535 436.763 38.428C437.607 37.8026 438.32 37.017 438.86 36.1161C439.401 35.2152 439.758 34.2167 439.913 33.1775C440.068 32.1384 440.016 31.0789 439.761 30.0597C439.506 29.0405 439.053 28.0814 438.428 27.2373C437.802 26.3932 437.017 25.6805 436.116 25.14C434.296 24.0484 432.118 23.7243 430.06 24.2389L366.06 40.2389C364.166 40.7126 362.511 41.8623 361.406 43.4714C360.301 45.0805 359.822 47.0381 360.06 48.9756C360.297 50.9131 361.235 52.6968 362.697 53.9909C364.158 55.2851 366.042 56.0004 367.994 56.0021V56.0021Z" fill="#293A60"/>
<path d="M392.239 94.0592C391.724 96.1176 392.049 98.2961 393.14 100.115C394.232 101.935 396.001 103.246 398.06 103.761L462.06 119.761C464.118 120.275 466.297 119.951 468.116 118.86C469.935 117.768 471.247 115.998 471.761 113.94C472.276 111.882 471.952 109.703 470.86 107.884C469.769 106.064 467.999 104.753 465.94 104.238L401.94 88.2384C399.882 87.7244 397.704 88.0489 395.885 89.1404C394.065 90.2319 392.754 92.0011 392.239 94.0592Z" fill="#293A60"/>
<path d="M124.422 31.1551L172.422 55.1551C174.32 56.1019 176.515 56.2566 178.527 55.5852C180.538 54.9138 182.201 53.4712 183.149 51.5746C184.098 49.6779 184.254 47.4823 183.584 45.4703C182.915 43.4583 181.473 41.7945 179.578 40.8446L131.578 16.8446C130.638 16.3737 129.614 16.0927 128.566 16.0175C127.518 15.9424 126.465 16.0746 125.467 16.4066C124.47 16.7385 123.548 17.2638 122.754 17.9523C121.96 18.6408 121.309 19.4791 120.839 20.4193C120.369 21.3594 120.088 22.383 120.014 23.4314C119.94 24.4799 120.073 25.5328 120.406 26.5298C120.739 27.5268 121.265 28.4485 121.954 29.2421C122.643 30.0358 123.482 30.6858 124.422 31.1551V31.1551Z" fill="#293A60"/>
<path d="M55.9907 112.002C56.4738 112.001 56.9559 111.958 57.4311 111.871L145.431 95.8712C146.465 95.6833 147.451 95.2936 148.334 94.7244C149.217 94.1552 149.98 93.4177 150.578 92.5539C151.176 91.6901 151.598 90.717 151.82 89.6901C152.042 88.6632 152.059 87.6026 151.871 86.569C151.683 85.5353 151.293 84.5488 150.724 83.6658C150.155 82.7828 149.418 82.0205 148.554 81.4225C147.69 80.8245 146.717 80.4024 145.69 80.1805C144.663 79.9586 143.602 79.9411 142.569 80.129L54.5688 96.129C52.6045 96.4864 50.8447 97.5654 49.6352 99.1539C48.4256 100.743 47.8538 102.726 48.0319 104.715C48.2101 106.703 49.1253 108.553 50.5979 109.902C52.0706 111.25 53.9941 111.999 55.9907 112.002V112.002Z" fill="#293A60"/>
</svg>
